name rise49.5252peak65.1548fall88.8305.mot
datacolumns 19
datarows 14
range 22.35990700000000 22.38157200000000
endheader
time	ground_force1_vx	ground_force1_vy	ground_force1_vz	ground_force1_px	ground_force1_py	ground_force1_pz	ground_force2_vx	ground_force2_vy	ground_force2_vz	ground_force2_px	ground_force2_py	ground_force2_pz	ground_torque1_x	ground_torque1_y	ground_torque1_z	ground_torque2_x	ground_torque2_y	ground_torque2_z	
22.35990700000000	-6.82956400000000	42.65184900000000	-7.85776400000000	0.36362200000000	0.00000000000000	0.09649500000000	-54.57088300000000	800.82065200000000	-50.00197900000000	0.17101600000000	0.00000000000000	-0.06482500000000	0.00000000000000	-5.93698200000000	0.00000000000000	0.00000000000000	-22.40889700000000	0.00000000000000	
22.36157400000000	-7.49633900000000	49.90165000000000	-8.80467800000000	0.36700600000000	0.00000000000000	0.09744500000000	-55.46108200000000	798.25948200000005	-49.83048200000000	0.16991600000000	0.00000000000000	-0.06474800000000	0.00000000000000	-6.70518500000000	0.00000000000000	0.00000000000000	-22.34424200000000	0.00000000000000	
22.36324000000000	-8.03421600000000	57.21831000000000	-9.65288800000000	0.37015400000000	0.00000000000000	0.09830900000000	-56.36087300000000	795.56847500000003	-49.64380200000000	0.16881300000000	0.00000000000000	-0.06467000000000	0.00000000000000	-7.41119200000000	0.00000000000000	0.00000000000000	-22.27838400000000	0.00000000000000	
22.36491000000000	-8.42402100000000	64.50530800000000	-10.38115900000000	0.37310500000000	0.00000000000000	0.09909900000000	-57.26914300000000	792.74493099999995	-49.44146700000000	0.16770600000000	0.00000000000000	-0.06459100000000	0.00000000000000	-8.03859500000000	0.00000000000000	0.00000000000000	-22.21116300000000	0.00000000000000	
22.36658000000000	-8.65405300000000	71.69011500000001	-10.97547700000000	0.37589100000000	0.00000000000000	0.09982600000000	-58.18468600000000	789.78611799999999	-49.22301100000000	0.16659800000000	0.00000000000000	-0.06450900000000	0.00000000000000	-8.57621400000000	0.00000000000000	0.00000000000000	-22.14241400000000	0.00000000000000	
22.36824000000000	-8.71999700000000	78.72635500000000	-11.42911600000000	0.37853800000000	0.00000000000000	0.10049900000000	-59.10620600000000	786.68928100000005	-48.98798300000000	0.16549000000000	0.00000000000000	-0.06442600000000	0.00000000000000	-9.01823600000000	0.00000000000000	0.00000000000000	-22.07196200000000	0.00000000000000	
22.36991000000000	-8.62425000000000	85.59345399999999	-11.74210700000000	0.38106800000000	0.00000000000000	0.10112300000000	-60.03231800000000	783.45165399999996	-48.73594400000000	0.16438200000000	0.00000000000000	-0.06434200000000	0.00000000000000	-9.36388000000000	0.00000000000000	0.00000000000000	-21.99962400000000	0.00000000000000	
22.37158000000000	-8.37481600000000	92.29422400000000	-11.92024300000000	0.38349600000000	0.00000000000000	0.10170600000000	-60.96154900000000	780.07046000000003	-48.46647300000000	0.16327600000000	0.00000000000000	-0.06425500000000	0.00000000000000	-9.61671700000000	0.00000000000000	0.00000000000000	-21.92521000000000	0.00000000000000	
22.37324300000000	-7.98393800000000	98.85093700000000	-11.97378600000000	0.38583700000000	0.00000000000000	0.10225100000000	-61.89234100000000	776.54292599999997	-48.17916900000000	0.16217300000000	0.00000000000000	-0.06416600000000	0.00000000000000	-9.78374900000000	0.00000000000000	0.00000000000000	-21.84852400000000	0.00000000000000	
22.37491500000000	-7.46661900000000	105.30048800000000	-11.91603300000000	0.38810200000000	0.00000000000000	0.10276400000000	-62.82305300000000	772.86629000000005	-47.87365600000000	0.16107400000000	0.00000000000000	-0.06407600000000	0.00000000000000	-9.87435700000000	0.00000000000000	0.00000000000000	-21.76936300000000	0.00000000000000	
22.37657800000000	-6.83917700000000	111.68918800000000	-11.76188400000000	0.39030000000000	0.00000000000000	0.10324700000000	-63.75196500000000	769.03781100000003	-47.54958000000000	0.15998100000000	0.00000000000000	-0.06398300000000	0.00000000000000	-9.89924700000000	0.00000000000000	0.00000000000000	-21.68752100000000	0.00000000000000	
22.37824100000000	-6.11794700000000	118.06769600000000	-11.52653000000000	0.39243900000000	0.00000000000000	0.10370400000000	-64.67728000000000	765.05478000000005	-47.20661900000000	0.15889400000000	0.00000000000000	-0.06388800000000	0.00000000000000	-9.86946000000000	0.00000000000000	0.00000000000000	-21.60278700000000	0.00000000000000	
22.37990700000000	-5.31820400000000	124.48645200000000	-11.22435000000000	0.39452500000000	0.00000000000000	0.10413800000000	-65.59712700000000	760.91453000000001	-46.84448100000000	0.15781500000000	0.00000000000000	-0.06379000000000	0.00000000000000	-9.79552600000000	0.00000000000000	0.00000000000000	-21.51494700000000	0.00000000000000	
22.38157200000000	-4.45336200000000	130.99189699999999	-10.86805000000000	0.39656200000000	0.00000000000000	0.10455000000000	-66.50956700000000	756.61444800000004	-46.46290900000000	0.15674500000000	0.00000000000000	-0.06369000000000	0.00000000000000	-9.68680500000000	0.00000000000000	0.00000000000000	-21.42378300000000	0.00000000000000	
